<?xml version="1.0" encoding="UTF-8"?>
<svg xmlns="http://www.w3.org/2000/svg" width="178" height="77" fill="none">
  <path fill="url(#a)" d="M60.678 76.392H10.324C4.624 76.392 0 71.768 0 66.068v-52.76c0-.824.697-1.52 1.52-1.52.824 0 1.52.696 1.52 1.52v52.76c0 4.053 3.294 7.284 7.284 7.284h50.354c.823 0 1.52.696 1.52 1.52-.064.823-.697 1.52-1.52 1.52z"></path>
  <path fill="#fff" fill-rule="evenodd" d="M10.199 0a3.06 3.06 0 0 0-3.06 3.06v63.232a3.06 3.06 0 0 0 3.06 3.06h63.233a3.06 3.06 0 0 0 3.06-3.06v-12.7a9.24 9.24 0 0 1-1.388 3.93c-.938 1.532-2.314 2.752-4.129 3.659-1.814.907-3.956 1.36-6.427 1.36-2.408 0-4.566-.39-6.474-1.173-1.908-.782-3.44-1.939-4.598-3.471-1.126-1.533-1.72-3.378-1.782-5.536h8.538c.125 1.22.547 2.158 1.267 2.815.719.625 1.657.938 2.815.938 1.188 0 2.126-.266 2.814-.798.689-.563 1.033-1.329 1.033-2.298 0-.814-.282-1.486-.845-2.018-.532-.531-1.204-.97-2.017-1.313-.782-.344-1.908-.735-3.378-1.173-2.127-.657-3.863-1.314-5.208-1.97-1.345-.657-2.502-1.627-3.471-2.91-.97-1.282-1.455-2.955-1.455-5.02 0-3.064 1.11-5.457 3.331-7.177 2.22-1.752 5.114-2.627 8.68-2.627 3.628 0 6.552.875 8.772 2.627 2.221 1.72 3.41 4.128 3.566 7.225h-8.68c-.062-1.064-.453-1.892-1.172-2.487-.72-.625-1.642-.938-2.768-.938-.97 0-1.752.266-2.346.797-.594.5-.891 1.236-.891 2.206 0 1.063.5 1.892 1.501 2.486 1.001.594 2.565 1.235 4.692 1.924 2.126.719 3.847 1.407 5.16 2.064 1.345.657 2.502 1.61 3.472 2.861.761.983 1.224 2.187 1.387 3.613V3.06A3.06 3.06 0 0 0 73.431 0H10.2zm37.83 51.704V29.279h-8.023v22.425c0 1.188-.266 2.096-.798 2.721-.531.626-1.282.938-2.252.938-1.063 0-1.876-.344-2.44-1.032-.562-.72-.844-1.767-.844-3.143h-7.975c0 3.628 1.048 6.427 3.143 8.398 2.096 1.97 4.88 2.955 8.351 2.955 3.315 0 5.943-.938 7.882-2.815 1.97-1.876 2.955-4.55 2.955-8.022z" clip-rule="evenodd"></path>
  <path fill="#fff" d="M92.97 55.41v6.803h-4.08c-2.909 0-5.176-.704-6.803-2.111-1.626-1.439-2.44-3.77-2.44-6.99V42.695h-3.19v-6.661h3.19v-6.38h8.023v6.38h5.255v6.661H87.67v10.51c0 .781.188 1.344.563 1.688.375.344 1.001.516 1.877.516h2.862zm.997-6.333c0-2.69.5-5.051 1.502-7.084 1.032-2.033 2.424-3.597 4.175-4.692 1.752-1.095 3.706-1.642 5.864-1.642 1.846 0 3.456.376 4.833 1.126 1.407.75 2.486 1.736 3.237 2.956v-3.706h8.022v26.178h-8.022v-3.706c-.782 1.22-1.877 2.205-3.284 2.955-1.376.75-2.987 1.126-4.832 1.126-2.127 0-4.066-.547-5.818-1.642-1.751-1.126-3.143-2.705-4.175-4.738-1.001-2.064-1.502-4.441-1.502-7.131zm19.611.047c0-2.002-.563-3.582-1.689-4.739-1.095-1.157-2.44-1.735-4.035-1.735-1.595 0-2.955.578-4.081 1.735-1.095 1.126-1.642 2.69-1.642 4.692 0 2.002.547 3.597 1.642 4.785 1.126 1.157 2.486 1.736 4.081 1.736 1.595 0 2.94-.579 4.035-1.736 1.126-1.157 1.689-2.737 1.689-4.738zm10.354 0c0-2.721.548-5.098 1.642-7.131 1.126-2.033 2.674-3.597 4.645-4.692 2.002-1.095 4.285-1.642 6.849-1.642 3.284 0 6.021.86 8.21 2.58 2.221 1.72 3.675 4.145 4.364 7.272h-8.539c-.719-2.001-2.111-3.002-4.175-3.002-1.47 0-2.643.578-3.519 1.736-.876 1.126-1.314 2.752-1.314 4.879s.438 3.768 1.314 4.926c.876 1.126 2.049 1.689 3.519 1.689 2.064 0 3.456-1.001 4.175-3.003h8.539c-.689 3.065-2.143 5.474-4.364 7.225-2.22 1.751-4.957 2.627-8.21 2.627-2.564 0-4.847-.547-6.849-1.642-1.971-1.094-3.519-2.658-4.645-4.691-1.094-2.033-1.642-4.41-1.642-7.131zm44.122 13.089-7.975-10.978v10.978h-8.023V27.496h8.023v19.188l7.928-10.65h9.899l-10.884 13.137L178 62.213h-9.946z"></path>
  <defs>
    <linearGradient id="a" x1="-.02" x2="62.15" y1="44.113" y2="44.113" gradientUnits="userSpaceOnUse">
      <stop stop-color="#40CBF6"></stop>
      <stop offset="1" stop-color="#82C041"></stop>
    </linearGradient>
  </defs>
</svg>
